<svg width="80" height="80" viewBox="0 0 80 80" fill="none" xmlns="http://www.w3.org/2000/svg">
<g clip-path="url(#clip0)">
<path d="M75.5847 80.0003C78.0228 80.0003 80 78.0234 80 75.585V4.41531C80 1.97656 78.0228 0 75.5847 0H4.41531C1.97625 0 0 1.97656 0 4.41531V75.585C0 78.0234 1.97625 80.0003 4.41531 80.0003H75.5847Z" fill="#395185"/>
<path d="M55.1984 80.0003V49.02H65.5975L67.1544 36.9466H55.1984V29.2378C55.1984 25.7422 56.1694 23.36 61.1822 23.36L67.5756 23.3572V12.5588C66.4694 12.4116 62.6744 12.0828 58.2594 12.0828C49.0412 12.0828 42.7306 17.7094 42.7306 28.0425V36.9466H32.305V49.02H42.7306V80.0003H55.1984Z" fill="white"/>
</g>
<defs>
<clipPath id="clip0">
<rect width="80" height="80" fill="white"/>
</clipPath>
</defs>
</svg>
