<svg width="80" height="80" viewBox="0 0 80 80" fill="none" xmlns="http://www.w3.org/2000/svg">
<g clip-path="url(#clip0)">
<path d="M17.5533 32.55C19.1129 27.8315 22.1228 23.726 26.1537 20.8193C30.1845 17.9126 35.0304 16.3531 40 16.3633C45.6333 16.3633 50.7266 18.3633 54.7266 21.6367L66.3666 10C59.2733 3.81667 50.1833 0 40 0C24.2333 0 10.66 8.99333 4.1333 22.1667L17.5533 32.55Z" fill="#EA4335"/>
<path d="M53.4667 60.0433C49.8333 62.3867 45.22 63.6367 40 63.6367C35.0502 63.6468 30.2227 62.0998 26.2008 59.2145C22.1789 56.3293 19.1665 52.252 17.59 47.56L4.12332 57.7833C7.42747 64.471 12.5409 70.098 18.8827 74.0252C25.2246 77.9524 32.5407 80.0223 40 80C49.7767 80 59.1167 76.5233 66.1133 70L53.47 60.0433H53.4667Z" fill="#34A853"/>
<path d="M66.1133 70C73.43 63.1733 78.18 53.0133 78.18 40C78.18 37.6333 77.8167 35.09 77.2733 32.7266H40V48.1833H61.4533C60.3967 53.38 57.5533 57.4033 53.47 60.0433L66.1133 70Z" fill="#4A90E2"/>
<path d="M17.59 47.56C16.7745 45.123 16.3602 42.5698 16.3633 40C16.3633 37.3933 16.78 34.89 17.5533 32.55L4.13333 22.1666C1.38792 27.7089 -0.0273299 33.815 -8.54666e-06 40C-8.54666e-06 46.4 1.48333 52.4333 4.12333 57.7833L17.59 47.56Z" fill="#FBBC05"/>
</g>
<defs>
<clipPath id="clip0">
<rect width="80" height="80" fill="white"/>
</clipPath>
</defs>
</svg>
