<svg width="295" height="44" viewBox="0 0 295 44" fill="none" xmlns="http://www.w3.org/2000/svg">
<path fill-rule="evenodd" clip-rule="evenodd" d="M22 0C20.1025 0 16.9318 0.72875 13.948 1.54C10.8955 2.365 7.81826 3.34125 6.00876 3.9325C5.25222 4.18234 4.58149 4.64053 4.07364 5.25443C3.56578 5.86833 3.2414 6.61303 3.13776 7.403C1.49876 19.7148 5.30201 28.8393 9.91651 34.8755C11.8734 37.4576 14.2066 39.7315 16.8383 41.6213C17.8998 42.372 18.8843 42.9468 19.7203 43.34C20.4903 43.703 21.318 44 22 44C22.682 44 23.507 43.703 24.2798 43.34C25.2876 42.8501 26.2518 42.2751 27.1618 41.6213C29.7935 39.7316 32.1267 37.4577 34.0835 34.8755C38.698 28.8393 42.5013 19.7148 40.8623 7.403C40.7588 6.61265 40.4345 5.86751 39.9267 5.25314C39.4188 4.63877 38.748 4.18008 37.9913 3.92975C35.3645 3.06849 32.7173 2.27075 30.052 1.53725C27.0683 0.7315 23.8975 0 22 0ZM22 13.75C22.9742 13.7485 23.9174 14.0919 24.6627 14.7193C25.4079 15.3466 25.9071 16.2175 26.0718 17.1776C26.2365 18.1378 26.056 19.1252 25.5625 19.9651C25.0689 20.8049 24.294 21.443 23.375 21.7662L24.4338 27.2387C24.4723 27.4378 24.4663 27.6429 24.4163 27.8394C24.3662 28.0358 24.2734 28.2188 24.1443 28.3752C24.0153 28.5315 23.8533 28.6574 23.6699 28.7438C23.4865 28.8303 23.2863 28.875 23.0835 28.875H20.9165C20.714 28.8746 20.5141 28.8296 20.331 28.743C20.148 28.6564 19.9863 28.5304 19.8576 28.3741C19.7288 28.2178 19.6362 28.035 19.5863 27.8387C19.5365 27.6424 19.5305 27.4376 19.569 27.2387L20.625 21.7662C19.7061 21.443 18.9312 20.8049 18.4376 19.9651C17.944 19.1252 17.7636 18.1378 17.9282 17.1776C18.0929 16.2175 18.5921 15.3466 19.3374 14.7193C20.0826 14.0919 21.0259 13.7485 22 13.75V13.75Z" fill="#4BBED8"/>
<path d="M66.925 19.1C66.925 20.1167 66.6917 21.05 66.225 21.9C65.7583 22.7333 65.0417 23.4083 64.075 23.925C63.1083 24.4417 61.9083 24.7 60.475 24.7H57.825V31H53.55V13.45H60.475C61.875 13.45 63.0583 13.6917 64.025 14.175C64.9917 14.6583 65.7167 15.325 66.2 16.175C66.6833 17.025 66.925 18 66.925 19.1ZM60.15 21.3C60.9667 21.3 61.575 21.1083 61.975 20.725C62.375 20.3417 62.575 19.8 62.575 19.1C62.575 18.4 62.375 17.8583 61.975 17.475C61.575 17.0917 60.9667 16.9 60.15 16.9H57.825V21.3H60.15ZM68.3006 24C68.3006 22.5667 68.5673 21.3083 69.1006 20.225C69.6506 19.1417 70.3923 18.3083 71.3256 17.725C72.2589 17.1417 73.3006 16.85 74.4506 16.85C75.4339 16.85 76.2923 17.05 77.0256 17.45C77.7756 17.85 78.3506 18.375 78.7506 19.025V17.05H83.0256V31H78.7506V29.025C78.3339 29.675 77.7506 30.2 77.0006 30.6C76.2673 31 75.4089 31.2 74.4256 31.2C73.2923 31.2 72.2589 30.9083 71.3256 30.325C70.3923 29.725 69.6506 28.8833 69.1006 27.8C68.5673 26.7 68.3006 25.4333 68.3006 24ZM78.7506 24.025C78.7506 22.9583 78.4506 22.1167 77.8506 21.5C77.2673 20.8833 76.5506 20.575 75.7006 20.575C74.8506 20.575 74.1256 20.8833 73.5256 21.5C72.9423 22.1 72.6506 22.9333 72.6506 24C72.6506 25.0667 72.9423 25.9167 73.5256 26.55C74.1256 27.1667 74.8506 27.475 75.7006 27.475C76.5506 27.475 77.2673 27.1667 77.8506 26.55C78.4506 25.9333 78.7506 25.0917 78.7506 24.025ZM91.7934 31.2C90.5767 31.2 89.4934 30.9917 88.5434 30.575C87.5934 30.1583 86.8434 29.5917 86.2934 28.875C85.7434 28.1417 85.435 27.325 85.3684 26.425H89.5934C89.6434 26.9083 89.8684 27.3 90.2684 27.6C90.6684 27.9 91.16 28.05 91.7434 28.05C92.2767 28.05 92.685 27.95 92.9684 27.75C93.2684 27.5333 93.4184 27.2583 93.4184 26.925C93.4184 26.525 93.21 26.2333 92.7934 26.05C92.3767 25.85 91.7017 25.6333 90.7684 25.4C89.7684 25.1667 88.935 24.925 88.2684 24.675C87.6017 24.4083 87.0267 24 86.5434 23.45C86.06 22.8833 85.8184 22.125 85.8184 21.175C85.8184 20.375 86.035 19.65 86.4684 19C86.9184 18.3333 87.5684 17.8083 88.4184 17.425C89.285 17.0417 90.31 16.85 91.4934 16.85C93.2434 16.85 94.6184 17.2833 95.6184 18.15C96.635 19.0167 97.2184 20.1667 97.3684 21.6H93.4184C93.3517 21.1167 93.135 20.7333 92.7684 20.45C92.4184 20.1667 91.9517 20.025 91.3684 20.025C90.8684 20.025 90.485 20.125 90.2184 20.325C89.9517 20.5083 89.8184 20.7667 89.8184 21.1C89.8184 21.5 90.0267 21.8 90.4434 22C90.8767 22.2 91.5434 22.4 92.4434 22.6C93.4767 22.8667 94.3184 23.1333 94.9684 23.4C95.6184 23.65 96.185 24.0667 96.6684 24.65C97.1684 25.2167 97.4267 25.9833 97.4434 26.95C97.4434 27.7667 97.21 28.5 96.7434 29.15C96.2934 29.7833 95.635 30.2833 94.7684 30.65C93.9184 31.0167 92.9267 31.2 91.7934 31.2ZM105.734 31.2C104.517 31.2 103.434 30.9917 102.484 30.575C101.534 30.1583 100.784 29.5917 100.234 28.875C99.6838 28.1417 99.3755 27.325 99.3088 26.425H103.534C103.584 26.9083 103.809 27.3 104.209 27.6C104.609 27.9 105.1 28.05 105.684 28.05C106.217 28.05 106.625 27.95 106.909 27.75C107.209 27.5333 107.359 27.2583 107.359 26.925C107.359 26.525 107.15 26.2333 106.734 26.05C106.317 25.85 105.642 25.6333 104.709 25.4C103.709 25.1667 102.875 24.925 102.209 24.675C101.542 24.4083 100.967 24 100.484 23.45C100 22.8833 99.7588 22.125 99.7588 21.175C99.7588 20.375 99.9755 19.65 100.409 19C100.859 18.3333 101.509 17.8083 102.359 17.425C103.225 17.0417 104.25 16.85 105.434 16.85C107.184 16.85 108.559 17.2833 109.559 18.15C110.575 19.0167 111.159 20.1667 111.309 21.6H107.359C107.292 21.1167 107.075 20.7333 106.709 20.45C106.359 20.1667 105.892 20.025 105.309 20.025C104.809 20.025 104.425 20.125 104.159 20.325C103.892 20.5083 103.759 20.7667 103.759 21.1C103.759 21.5 103.967 21.8 104.384 22C104.817 22.2 105.484 22.4 106.384 22.6C107.417 22.8667 108.259 23.1333 108.909 23.4C109.559 23.65 110.125 24.0667 110.609 24.65C111.109 25.2167 111.367 25.9833 111.384 26.95C111.384 27.7667 111.15 28.5 110.684 29.15C110.234 29.7833 109.575 30.2833 108.709 30.65C107.859 31.0167 106.867 31.2 105.734 31.2ZM134.024 17.05L130.249 31H125.524L123.324 21.95L121.049 31H116.349L112.549 17.05H116.824L118.799 27.025L121.149 17.05H125.674L128.049 26.975L129.999 17.05H134.024ZM142.004 31.2C140.638 31.2 139.404 30.9083 138.304 30.325C137.221 29.7417 136.363 28.9083 135.729 27.825C135.113 26.7417 134.804 25.475 134.804 24.025C134.804 22.5917 135.121 21.3333 135.754 20.25C136.388 19.15 137.254 18.3083 138.354 17.725C139.454 17.1417 140.688 16.85 142.054 16.85C143.421 16.85 144.654 17.1417 145.754 17.725C146.854 18.3083 147.721 19.15 148.354 20.25C148.988 21.3333 149.304 22.5917 149.304 24.025C149.304 25.4583 148.979 26.725 148.329 27.825C147.696 28.9083 146.821 29.7417 145.704 30.325C144.604 30.9083 143.371 31.2 142.004 31.2ZM142.004 27.5C142.821 27.5 143.513 27.2 144.079 26.6C144.663 26 144.954 25.1417 144.954 24.025C144.954 22.9083 144.671 22.05 144.104 21.45C143.554 20.85 142.871 20.55 142.054 20.55C141.221 20.55 140.529 20.85 139.979 21.45C139.429 22.0333 139.154 22.8917 139.154 24.025C139.154 25.1417 139.421 26 139.954 26.6C140.504 27.2 141.188 27.5 142.004 27.5ZM155.847 19.375C156.347 18.6083 156.972 18.0083 157.722 17.575C158.472 17.125 159.306 16.9 160.222 16.9V21.425H159.047C157.981 21.425 157.181 21.6583 156.647 22.125C156.114 22.575 155.847 23.375 155.847 24.525V31H151.572V17.05H155.847V19.375ZM161.416 24C161.416 22.5667 161.682 21.3083 162.216 20.225C162.766 19.1417 163.507 18.3083 164.441 17.725C165.374 17.1417 166.416 16.85 167.566 16.85C168.482 16.85 169.316 17.0417 170.066 17.425C170.832 17.8083 171.432 18.325 171.866 18.975V12.5H176.141V31H171.866V29C171.466 29.6667 170.891 30.2 170.141 30.6C169.407 31 168.549 31.2 167.566 31.2C166.416 31.2 165.374 30.9083 164.441 30.325C163.507 29.725 162.766 28.8833 162.216 27.8C161.682 26.7 161.416 25.4333 161.416 24ZM171.866 24.025C171.866 22.9583 171.566 22.1167 170.966 21.5C170.382 20.8833 169.666 20.575 168.816 20.575C167.966 20.575 167.241 20.8833 166.641 21.5C166.057 22.1 165.766 22.9333 165.766 24C165.766 25.0667 166.057 25.9167 166.641 26.55C167.241 27.1667 167.966 27.475 168.816 27.475C169.666 27.475 170.382 27.1667 170.966 26.55C171.566 25.9333 171.866 25.0917 171.866 24.025ZM199.109 13.45V31H194.834V20.475L190.909 31H187.459L183.509 20.45V31H179.234V13.45H184.284L189.209 25.6L194.084 13.45H199.109ZM201.333 24C201.333 22.5667 201.599 21.3083 202.133 20.225C202.683 19.1417 203.424 18.3083 204.358 17.725C205.291 17.1417 206.333 16.85 207.483 16.85C208.466 16.85 209.324 17.05 210.058 17.45C210.808 17.85 211.383 18.375 211.783 19.025V17.05H216.058V31H211.783V29.025C211.366 29.675 210.783 30.2 210.033 30.6C209.299 31 208.441 31.2 207.458 31.2C206.324 31.2 205.291 30.9083 204.358 30.325C203.424 29.725 202.683 28.8833 202.133 27.8C201.599 26.7 201.333 25.4333 201.333 24ZM211.783 24.025C211.783 22.9583 211.483 22.1167 210.883 21.5C210.299 20.8833 209.583 20.575 208.733 20.575C207.883 20.575 207.158 20.8833 206.558 21.5C205.974 22.1 205.683 22.9333 205.683 24C205.683 25.0667 205.974 25.9167 206.558 26.55C207.158 27.1667 207.883 27.475 208.733 27.475C209.583 27.475 210.299 27.1667 210.883 26.55C211.483 25.9333 211.783 25.0917 211.783 24.025ZM227.651 16.9C229.284 16.9 230.584 17.4333 231.551 18.5C232.534 19.55 233.026 21 233.026 22.85V31H228.776V23.425C228.776 22.4917 228.534 21.7667 228.051 21.25C227.567 20.7333 226.917 20.475 226.101 20.475C225.284 20.475 224.634 20.7333 224.151 21.25C223.667 21.7667 223.426 22.4917 223.426 23.425V31H219.151V17.05H223.426V18.9C223.859 18.2833 224.442 17.8 225.176 17.45C225.909 17.0833 226.734 16.9 227.651 16.9ZM235.146 24C235.146 22.5667 235.413 21.3083 235.946 20.225C236.496 19.1417 237.238 18.3083 238.171 17.725C239.105 17.1417 240.146 16.85 241.296 16.85C242.28 16.85 243.138 17.05 243.871 17.45C244.621 17.85 245.196 18.375 245.596 19.025V17.05H249.871V31H245.596V29.025C245.18 29.675 244.596 30.2 243.846 30.6C243.113 31 242.255 31.2 241.271 31.2C240.138 31.2 239.105 30.9083 238.171 30.325C237.238 29.725 236.496 28.8833 235.946 27.8C235.413 26.7 235.146 25.4333 235.146 24ZM245.596 24.025C245.596 22.9583 245.296 22.1167 244.696 21.5C244.113 20.8833 243.396 20.575 242.546 20.575C241.696 20.575 240.971 20.8833 240.371 21.5C239.788 22.1 239.496 22.9333 239.496 24C239.496 25.0667 239.788 25.9167 240.371 26.55C240.971 27.1667 241.696 27.475 242.546 27.475C243.396 27.475 244.113 27.1667 244.696 26.55C245.296 25.9333 245.596 25.0917 245.596 24.025ZM258.264 16.85C259.247 16.85 260.106 17.05 260.839 17.45C261.589 17.85 262.164 18.375 262.564 19.025V17.05H266.839V30.975C266.839 32.2583 266.581 33.4167 266.064 34.45C265.564 35.5 264.789 36.3333 263.739 36.95C262.706 37.5667 261.414 37.875 259.864 37.875C257.797 37.875 256.122 37.3833 254.839 36.4C253.556 35.4333 252.822 34.1167 252.639 32.45H256.864C256.997 32.9833 257.314 33.4 257.814 33.7C258.314 34.0167 258.931 34.175 259.664 34.175C260.547 34.175 261.247 33.9167 261.764 33.4C262.297 32.9 262.564 32.0917 262.564 30.975V29C262.147 29.65 261.572 30.1833 260.839 30.6C260.106 31 259.247 31.2 258.264 31.2C257.114 31.2 256.072 30.9083 255.139 30.325C254.206 29.725 253.464 28.8833 252.914 27.8C252.381 26.7 252.114 25.4333 252.114 24C252.114 22.5667 252.381 21.3083 252.914 20.225C253.464 19.1417 254.206 18.3083 255.139 17.725C256.072 17.1417 257.114 16.85 258.264 16.85ZM262.564 24.025C262.564 22.9583 262.264 22.1167 261.664 21.5C261.081 20.8833 260.364 20.575 259.514 20.575C258.664 20.575 257.939 20.8833 257.339 21.5C256.756 22.1 256.464 22.9333 256.464 24C256.464 25.0667 256.756 25.9167 257.339 26.55C257.939 27.1667 258.664 27.475 259.514 27.475C260.364 27.475 261.081 27.1667 261.664 26.55C262.264 25.9333 262.564 25.0917 262.564 24.025ZM283.082 23.8C283.082 24.2 283.057 24.6167 283.007 25.05H273.332C273.399 25.9167 273.674 26.5833 274.157 27.05C274.657 27.5 275.265 27.725 275.982 27.725C277.049 27.725 277.79 27.275 278.207 26.375H282.757C282.524 27.2917 282.099 28.1167 281.482 28.85C280.882 29.5833 280.124 30.1583 279.207 30.575C278.29 30.9917 277.265 31.2 276.132 31.2C274.765 31.2 273.549 30.9083 272.482 30.325C271.415 29.7417 270.582 28.9083 269.982 27.825C269.382 26.7417 269.082 25.475 269.082 24.025C269.082 22.575 269.374 21.3083 269.957 20.225C270.557 19.1417 271.39 18.3083 272.457 17.725C273.524 17.1417 274.749 16.85 276.132 16.85C277.482 16.85 278.682 17.1333 279.732 17.7C280.782 18.2667 281.599 19.075 282.182 20.125C282.782 21.175 283.082 22.4 283.082 23.8ZM278.707 22.675C278.707 21.9417 278.457 21.3583 277.957 20.925C277.457 20.4917 276.832 20.275 276.082 20.275C275.365 20.275 274.757 20.4833 274.257 20.9C273.774 21.3167 273.474 21.9083 273.357 22.675H278.707ZM289.612 19.375C290.112 18.6083 290.737 18.0083 291.487 17.575C292.237 17.125 293.07 16.9 293.987 16.9V21.425H292.812C291.745 21.425 290.945 21.6583 290.412 22.125C289.879 22.575 289.612 23.375 289.612 24.525V31H285.337V17.05H289.612V19.375Z" fill="#4BBED8"/>
</svg>
