<svg width="98" height="80" viewBox="0 0 98 80" fill="none" xmlns="http://www.w3.org/2000/svg">
<g clip-path="url(#clip0)">
<path d="M97.9904 9.74162C94.3847 11.3405 90.5102 12.421 86.4436 12.9072C90.5948 10.4191 93.7822 6.47923 95.2831 1.78488C91.3369 4.12664 87.0194 5.77656 82.5171 6.66334C78.8498 2.75636 73.6253 0.314636 67.8427 0.314636C56.7399 0.314636 47.7382 9.31598 47.7382 20.418C47.7382 21.9939 47.9162 23.528 48.2588 24.9998C31.5506 24.1611 16.7372 16.1577 6.82144 3.99464C5.09129 6.96382 4.0999 10.4176 4.0999 14.1014C4.0999 21.0764 7.64938 27.2295 13.0434 30.8348C9.85091 30.7348 6.72861 29.8726 3.93723 28.32C3.93608 28.4042 3.93608 28.4884 3.93608 28.573C3.93608 38.3135 10.8658 46.439 20.0624 48.2859C17.102 49.0911 13.9967 49.2089 10.9837 48.6304C13.5418 56.6174 20.9665 62.4295 29.7634 62.5921C22.8831 67.9839 14.2144 71.1981 4.79579 71.1981C3.17282 71.1981 1.57282 71.1028 0 70.9171C8.89684 76.6212 19.4641 79.9495 30.8172 79.9495C67.796 79.9495 88.0168 49.3156 88.0168 22.7495C88.0168 21.8775 87.9977 21.0105 87.9587 20.1485C91.8945 17.3033 95.2915 13.7792 97.9904 9.74162Z" fill="#55ACEE"/>
</g>
<defs>
<clipPath id="clip0">
<rect width="97.9904" height="80" fill="white"/>
</clipPath>
</defs>
</svg>
